<svg width="25px" xmlns="http://www.w3.org/2000/svg" viewBox="0 0 40 40"><path d="M20,38.05A18.05,18.05,0,1,1,38.05,20,18.05,18.05,0,0,1,20,38.05Zm4.06125-27.82708h-8.1225c-5.5955,0-5.56542,5.56541-5.56542,5.56541v8.1225c0,5.56542,5.56542,5.56542,5.56542,5.56542h8.1225c5.56542,0,5.56542-5.56541,5.56542-5.56541V15.78833C29.62667,10.22292,24.06125,10.22292,24.06125,10.22292Z" style="fill:#111"/><path d="M27.82167,23.76042a3.595,3.595,0,0,1-3.91084,3.91083H16.08917a3.595,3.595,0,0,1-3.91084-3.91083V15.93875a3.595,3.595,0,0,1,3.91084-3.91083h7.82166a3.595,3.595,0,0,1,3.91083,3.91083ZM24.96375,20A4.96375,4.96375,0,1,0,20,24.96375,4.96375,4.96375,0,0,0,24.96375,20ZM20,23.30917A3.30917,3.30917,0,1,1,23.30917,20h0A3.32422,3.32422,0,0,1,20,23.30917Zm5.26458-9.77709a1.20334,1.20334,0,1,0,1.20334,1.20334h0A1.20334,1.20334,0,0,0,25.26458,13.53208Z" style="fill: #111"/><circle cx="20" cy="20" r="3.30917" style="fill: none"/></svg>
