<svg width="25px" xmlns="http://www.w3.org/2000/svg" viewBox="0 0 40 40"><path d="M39,20A19,19,0,1,1,20,1a18.82257,18.82257,0,0,1,16.625,9.975A17.88143,17.88143,0,0,1,39,20Zm-9.65834,8.70833V22.21667a4.85978,4.85978,0,0,0-1.26665-3.8A3.44243,3.44243,0,0,0,24.90834,17.15a3.08652,3.08652,0,0,0-1.26664.15833l-.95.475c-.15835.15833-.475.31667-.63333.63334-.15834.15833-.31668.475-.475.63333V17.46667h-3.8v11.4h3.8V22.53334a2.00811,2.00811,0,0,1,.15834-.95,2.32735,2.32735,0,0,1,.79167-.95A1.23139,1.23139,0,0,1,23.8,20.31667a1.54337,1.54337,0,0,1,1.425.63334,4.21569,4.21569,0,0,1,.475,1.9v6.01667ZM15.25,15.25a2.35789,2.35789,0,0,0,.63332-1.425A1.71917,1.71917,0,0,0,15.25,12.4a2.03277,2.03277,0,0,0-1.58333-.63333A2.03278,2.03278,0,0,0,12.08333,12.4,2.358,2.358,0,0,0,11.45,13.825a1.71919,1.71919,0,0,0,.63332,1.425,1.5188,1.5188,0,0,0,1.58334.475h0A1.91374,1.91374,0,0,0,15.25,15.25Zm.31669,13.45833v-11.4h-3.8v11.4Z" style="fill:#111"/></svg>
