<svg width="25px" xmlns="http://www.w3.org/2000/svg" viewBox="0 0 40 40"><path d="M20,1A19,19,0,1,1,1,20H1A19.05588,19.05588,0,0,1,20,1Zm9.025,15.83333a14.671,14.671,0,0,0,2.21666-2.21666,6.63551,6.63551,0,0,1-2.375.63333,4.04521,4.04521,0,0,0,1.9-2.375A13.6975,13.6975,0,0,1,28.075,13.98334a3.98621,3.98621,0,0,0-3.16667-1.425,4.25723,4.25723,0,0,0-4.275,4.275h0a2.008,2.008,0,0,0,.15835.95,13.24338,13.24338,0,0,1-4.90835-1.26666A12.95321,12.95321,0,0,1,11.925,13.35a5.15373,5.15373,0,0,0-.63332,2.21667,3.79817,3.79817,0,0,0,1.9,3.48333,4.21614,4.21614,0,0,1-1.9-.475h0a4.29958,4.29958,0,0,0,.95,2.69166,3.7328,3.7328,0,0,0,2.53334,1.425,2.69464,2.69464,0,0,1-1.10835.15833H12.875a4.05314,4.05314,0,0,0,1.58333,2.05833A4.78454,4.78454,0,0,0,16.99168,25.7a8.28542,8.28542,0,0,1-5.38333,1.9H10.5a11.93409,11.93409,0,0,0,6.49168,1.9,10.23074,10.23074,0,0,0,4.275-.79167,14.89921,14.89921,0,0,0,3.48335-1.9,10.36912,10.36912,0,0,0,2.375-2.85,10.7815,10.7815,0,0,0,1.58333-3.325,12.34682,12.34682,0,0,0,.475-3.48333c-.15834,0-.15834-.15834-.15834-.31668Z" style="fill:#111"/></svg>
